<svg xmlns="http://www.w3.org/2000/svg" xmlns:xlink="http://www.w3.org/1999/xlink" viewBox="0 0 439 622"><defs><style>.cls-1{fill:gray;}.cls-1,.cls-3{stroke:#000;stroke-miterlimit:10;stroke-width:25px;}.cls-2{mask:url(#mask);}.cls-3{fill:none;}.cls-4{filter:url(#luminosity-invert-noclip);}</style><filter id="luminosity-invert-noclip" x="82.5" y="-7830.5" width="290" height="32766" filterUnits="userSpaceOnUse" color-interpolation-filters="sRGB"><feColorMatrix values="-1 0 0 0 1 0 -1 0 0 1 0 0 -1 0 1 0 0 0 1 0" result="invert"/><feFlood flood-color="#fff" result="bg"/><feBlend in="invert" in2="bg"/></filter><mask id="mask" x="82.5" y="-7830.5" width="290" height="32766" maskUnits="userSpaceOnUse"><g class="cls-4"/></mask></defs><title>Asset 1</title><g id="Layer_2" data-name="Layer 2"><g id="BrakePedal"><path class="cls-1" d="M165.64,609.5H348.36a81.07,81.07,0,0,0,55.25-21.22c14.14-13.11,22.89-31.21,22.89-51.22V84.94c0-20-8.75-38.11-22.89-51.22A81.07,81.07,0,0,0,348.36,12.5H90.64A81.07,81.07,0,0,0,35.39,33.72C21.25,46.83,12.5,64.93,12.5,84.94L50,311,87.5,537.06c0,20,8.75,38.11,22.89,51.22A81.07,81.07,0,0,0,165.64,609.5Z"/><g class="cls-2"><rect class="cls-3" x="95" y="94.5" width="265" height="80" rx="40"/></g><rect class="cls-3" x="122" y="247" width="230" height="75" rx="32.34"/><rect class="cls-3" x="148.5" y="397" width="195" height="75" rx="37.5"/></g></g></svg>